<?xml version="1.0" standalone="no"?>
<!DOCTYPE svg PUBLIC "-//W3C//DTD SVG 20010904//EN"
 "http://www.w3.org/TR/2001/REC-SVG-20010904/DTD/svg10.dtd">
<svg version="1.0" xmlns="http://www.w3.org/2000/svg"
 width="260.000000pt" height="260.000000pt" viewBox="0 0 260.000000 260.000000"
 preserveAspectRatio="xMidYMid meet">
<metadata>
Created by potrace 1.11, written by Peter Selinger 2001-2013
</metadata>
<g transform="translate(0.000000,260.000000) scale(0.100000,-0.100000)"
fill="#000000" stroke="none">
<path d="M1325 2589 c-91 -13 -119 -20 -215 -49 -374 -116 -686 -407 -833
-780 -30 -76 -64 -204 -73 -269 -3 -25 -7 -57 -10 -71 -5 -31 -6 -248 0 -275
2 -11 6 -41 10 -66 12 -79 16 -97 42 -182 67 -213 174 -388 336 -550 60 -60
114 -107 120 -105 7 3 15 18 19 34 4 16 21 92 39 169 18 77 38 167 45 200 8
33 27 116 43 185 l28 125 -32 45 c-184 260 -183 643 3 923 132 199 350 340
627 405 101 24 130 26 326 26 204 0 253 -4 406 -38 23 -5 150 -44 174 -53 8
-4 -1 7 -20 23 -19 16 -37 31 -40 34 -20 22 -132 93 -216 136 -116 60 -259
107 -389 128 -95 15 -305 18 -390 5z"/>
<path d="M1687 2084 c-1 -1 -29 -5 -62 -9 -405 -45 -666 -308 -650 -655 12
-259 186 -435 572 -580 174 -66 251 -107 281 -153 54 -82 21 -177 -75 -214
-38 -14 -76 -18 -178 -18 -71 0 -152 3 -178 7 -59 9 -203 52 -281 85 -32 13
-59 23 -60 21 -1 -2 -22 -88 -45 -193 -23 -104 -46 -202 -51 -217 -7 -22 -5
-29 13 -41 42 -27 243 -86 357 -105 49 -8 354 -8 420 0 268 32 494 167 592
353 91 176 94 375 6 548 -31 62 -175 217 -202 217 -2 0 -29 16 -61 35 -32 19
-144 68 -249 110 -192 75 -264 113 -293 155 -22 31 -21 99 1 132 62 94 324
106 566 25 58 -20 106 -34 108 -32 8 8 111 418 107 425 -14 22 -239 82 -355
96 -56 6 -278 12 -283 8z"/>
</g>
</svg>
